<?xml version="1.0" encoding="UTF-8" standalone="no"?>
<!-- Created with Inkscape (http://www.inkscape.org/) -->

<svg
   width="5.291666mm"
   height="5.291666mm"
   viewBox="0 0 5.2916661 5.2916659"
   version="1.1"
   id="svg1704"
   inkscape:version="1.2.2 (732a01da63, 2022-12-09, custom)"
   sodipodi:docname="instagramLogo.svg"
   xmlns:inkscape="http://www.inkscape.org/namespaces/inkscape"
   xmlns:sodipodi="http://sodipodi.sourceforge.net/DTD/sodipodi-0.dtd"
   xmlns="http://www.w3.org/2000/svg"
   xmlns:svg="http://www.w3.org/2000/svg">
  <sodipodi:namedview
     id="namedview1706"
     pagecolor="#ffffff"
     bordercolor="#000000"
     borderopacity="0.25"
     inkscape:showpageshadow="2"
     inkscape:pageopacity="0.0"
     inkscape:pagecheckerboard="0"
     inkscape:deskcolor="#d1d1d1"
     inkscape:document-units="mm"
     showgrid="false"
     inkscape:zoom="2.8079686"
     inkscape:cx="40.242616"
     inkscape:cy="5.5200048"
     inkscape:window-width="1858"
     inkscape:window-height="1016"
     inkscape:window-x="0"
     inkscape:window-y="0"
     inkscape:window-maximized="1"
     inkscape:current-layer="layer1" />
  <defs
     id="defs1701" />
  <g
     inkscape:label="Capa 1"
     inkscape:groupmode="layer"
     id="layer1"
     transform="translate(-74.781415,-144.88423)">
    <g
       id="g11560-48-5"
       transform="matrix(0.03130015,0,0,0.03130015,74.781415,144.88423)"
       style="fill:#786923;fill-opacity:1;stroke:none;stroke-opacity:1">
      <path
         d="M 122.406,0 H 46.654 C 20.929,0 0,20.93 0,46.655 v 75.752 c 0,25.726 20.929,46.655 46.654,46.655 h 75.752 c 25.727,0 46.656,-20.93 46.656,-46.655 V 46.655 C 169.063,20.93 148.133,0 122.406,0 Z m 31.657,122.407 c 0,17.455 -14.201,31.655 -31.656,31.655 H 46.654 C 29.2,154.063 15,139.862 15,122.407 V 46.655 C 15,29.201 29.2,15 46.654,15 h 75.752 c 17.455,0 31.656,14.201 31.656,31.655 v 75.752 z"
         id="path11554-58-3"
         style="fill:#786923;fill-opacity:1;stroke:none;stroke-opacity:1" />
      <path
         d="m 84.531,40.97 c -24.021,0 -43.563,19.542 -43.563,43.563 0,24.02 19.542,43.561 43.563,43.561 24.021,0 43.563,-19.541 43.563,-43.561 0,-24.021 -19.542,-43.563 -43.563,-43.563 z m 0,72.123 c -15.749,0 -28.563,-12.812 -28.563,-28.561 0,-15.75 12.813,-28.563 28.563,-28.563 15.75,0 28.563,12.813 28.563,28.563 0,15.749 -12.814,28.561 -28.563,28.561 z"
         id="path11556-2-5"
         style="fill:#786923;fill-opacity:1;stroke:none;stroke-opacity:1" />
      <path
         d="m 129.921,28.251 c -2.89,0 -5.729,1.17 -7.77,3.22 -2.051,2.04 -3.23,4.88 -3.23,7.78 0,2.891 1.18,5.73 3.23,7.78 2.04,2.04 4.88,3.22 7.77,3.22 2.9,0 5.73,-1.18 7.78,-3.22 2.05,-2.05 3.22,-4.89 3.22,-7.78 0,-2.9 -1.17,-5.74 -3.22,-7.78 -2.04,-2.05 -4.88,-3.22 -7.78,-3.22 z"
         id="path11558-6-6"
         style="fill:#786923;fill-opacity:1;stroke:none;stroke-opacity:1" />
    </g>
  </g>
</svg>
